<?xml version="1.0" standalone="no"?>
<!DOCTYPE svg PUBLIC "-//W3C//DTD SVG 20010904//EN"
 "http://www.w3.org/TR/2001/REC-SVG-20010904/DTD/svg10.dtd">
<svg version="1.0" xmlns="http://www.w3.org/2000/svg"
 width="512.000000pt" height="512.000000pt" viewBox="0 0 512.000000 512.000000"
 preserveAspectRatio="xMidYMid meet">

<g transform="translate(0.000000,512.000000) scale(0.100000,-0.100000)"
fill="#000000" stroke="none">
<path d="M2315 5109 c-411 -42 -816 -184 -1150 -403 -1107 -727 -1482 -2153
-876 -3322 133 -256 279 -452 492 -659 404 -393 882 -624 1464 -707 118 -17
512 -17 630 0 767 109 1399 502 1820 1132 208 311 349 691 407 1095 17 118 17
512 0 630 -85 593 -327 1088 -734 1495 -393 394 -891 643 -1453 726 -122 18
-477 26 -600 13z m450 -149 c460 -43 861 -195 1237 -470 132 -96 381 -345 482
-480 525 -706 631 -1623 279 -2427 -54 -123 -175 -332 -258 -444 l-60 -82 -12
74 c-24 145 -85 261 -190 360 -105 99 -148 117 -598 259 -55 17 -208 85 -347
153 l-248 121 0 101 0 100 75 68 c90 82 152 167 204 279 38 82 71 192 71 239
0 19 9 28 45 42 55 23 101 73 115 127 7 27 10 181 8 468 l-3 427 -27 52 c-51
96 -142 162 -238 171 l-47 4 -6 50 c-13 107 -104 212 -212 244 -46 13 -121 15
-527 12 -457 -4 -475 -4 -531 -25 -171 -65 -286 -163 -356 -304 -42 -84 -71
-191 -71 -262 0 -40 34 -87 65 -87 12 0 15 -16 15 -100 0 -92 -2 -100 -19
-100 -11 0 -29 -12 -40 -26 -20 -25 -21 -39 -21 -258 0 -128 5 -248 10 -268
14 -51 53 -94 109 -123 46 -23 47 -23 59 -95 28 -164 127 -339 262 -462 l80
-73 0 -101 0 -100 -250 -123 c-224 -109 -275 -130 -488 -197 -288 -90 -361
-124 -453 -212 -108 -102 -177 -235 -194 -376 l-8 -58 -23 28 c-51 62 -175
254 -227 354 -387 731 -363 1645 61 2349 110 183 208 307 367 466 283 284 565
461 933 585 201 68 358 100 602 123 80 8 272 6 375 -3z m-480 -1364 c102 -23
143 -27 275 -27 132 0 173 4 275 27 180 40 205 41 235 10 21 -23 25 -39 30
-124 9 -139 43 -197 140 -241 31 -14 66 -21 113 -21 l67 0 0 -96 c0 -52 -4
-103 -10 -113 -5 -11 -26 -21 -51 -25 -66 -11 -93 -48 -107 -145 -51 -361
-334 -611 -692 -611 -351 0 -637 247 -690 595 -7 44 -19 93 -27 108 -14 29
-65 57 -102 57 -32 0 -41 31 -41 133 l0 95 78 3 c98 5 161 39 207 113 26 43
30 60 35 147 4 86 8 100 30 124 30 32 54 31 235 -9z m17 -1480 c176 -59 355
-53 581 21 15 5 17 -2 17 -63 l0 -69 -161 -190 c-89 -105 -165 -191 -169 -193
-4 -1 -84 84 -179 190 l-171 193 0 68 c0 37 2 67 5 67 2 0 37 -11 77 -24z m28
-460 c107 -121 129 -151 118 -161 -49 -46 -201 -165 -209 -165 -13 0 -54 44
-87 92 -24 37 -24 41 -19 180 3 79 11 165 17 192 12 47 13 48 30 30 10 -11 77
-86 150 -168z m640 132 c6 -24 14 -109 17 -189 l5 -145 -44 -55 c-24 -30 -51
-55 -60 -57 -17 -3 -211 155 -206 169 5 13 262 318 269 318 4 1 12 -18 19 -41z
m-30 -604 c0 -16 -66 -250 -88 -314 l-19 -55 -11 40 c-6 22 -23 88 -38 147
l-26 107 31 43 c30 42 32 43 91 43 36 0 60 -4 60 -11z m-609 -37 l31 -38 -26
-107 c-15 -59 -32 -125 -38 -147 l-11 -40 -19 55 c-19 53 -88 297 -88 310 0 3
27 5 60 5 57 -1 62 -3 91 -38z m345 -342 l61 -240 -30 -70 c-16 -38 -56 -126
-88 -195 l-60 -124 -26 54 c-14 30 -54 118 -88 194 l-62 140 58 230 c33 127
61 237 64 244 3 9 21 12 57 10 l53 -3 61 -240z"/>
</g>
</svg>
