<?xml version="1.0" encoding="iso-8859-1"?>
<!-- Uploaded to: SVG Repo, www.svgrepo.com, Generator: SVG Repo Mixer Tools -->
<svg fill="#000000" version="1.1" id="Layer_1" xmlns="http://www.w3.org/2000/svg" xmlns:xlink="http://www.w3.org/1999/xlink" 
	 viewBox="0 0 512 512" xml:space="preserve">
<g>
	<g>
		<path d="M192,89.6H89.6c-7.074,0-12.8,5.726-12.8,12.8c0,7.074,5.726,12.8,12.8,12.8H192c7.074,0,12.8-5.726,12.8-12.8
			C204.8,95.326,199.074,89.6,192,89.6z"/>
	</g>
</g>
<g>
	<g>
		<path d="M499.2,140.8h-64v-25.6c0-14.14-11.46-25.6-25.6-25.6h-51.2c0-28.237-22.972-51.2-51.2-51.2h-256
			C22.972,38.4,0,61.363,0,89.6v128c0,28.228,22.972,51.2,51.2,51.2v128c-14.14,0-25.6,11.46-25.6,25.6V448
			c0,14.14,11.46,25.6,25.6,25.6h128c14.14,0,25.6-11.46,25.6-25.6v-25.6c0-14.14-11.46-25.6-25.6-25.6v-51.2h51.2
			c14.14,0,25.6-11.46,25.6-25.6v-51.2h51.2c28.228,0,51.2-22.972,51.2-51.2h51.2c14.14,0,25.6-11.46,25.6-25.6v-25.6h64
			c7.074,0,12.8-5.726,12.8-12.8C512,146.526,506.274,140.8,499.2,140.8z M179.2,448h-128v-25.6h128V448z M76.8,396.8v-128h76.8v128
			H76.8z M230.4,320h-51.2v-51.2h51.2V320z M332.8,217.6c0,14.14-11.46,25.6-25.6,25.6h-256c-14.14,0-25.6-11.46-25.6-25.6v-128
			C25.6,75.46,37.06,64,51.2,64h256c14.14,0,25.6,11.46,25.6,25.6V217.6z M409.6,192h-51.2v-76.8h51.2V192z"/>
	</g>
</g>
<g>
	<g>
		<path d="M192,140.8H89.6c-7.074,0-12.8,5.726-12.8,12.8c0,7.074,5.726,12.8,12.8,12.8H192c7.074,0,12.8-5.726,12.8-12.8
			C204.8,146.526,199.074,140.8,192,140.8z"/>
	</g>
</g>
<g>
	<g>
		<path d="M192,192H89.6c-7.074,0-12.8,5.726-12.8,12.8c0,7.074,5.726,12.8,12.8,12.8H192c7.074,0,12.8-5.726,12.8-12.8
			C204.8,197.726,199.074,192,192,192z"/>
	</g>
</g>
</svg>
